<?xml version="1.0" encoding="utf-8"?>
<svg viewBox="0 0 512 512" xmlns="http://www.w3.org/2000/svg" width="512" height="512">
  <defs id="gdefs"><linearGradient id="g-head" gradientUnits="userSpaceOnUse" x1="51.4" y1="84.2" x2="460.7" y2="427.8"><stop offset="0%" stop-color="#00c795" /><stop offset="100%" stop-color="#00e676" /></linearGradient></defs>
  <path d="M49.02 89.1C47.44 90.68 47.76 149.82 49.5 182.63 50.44 198.71 52.5 228.05 54.23 248.08 55.81 267.95 57.7 291.77 58.17 300.92 59.9 328.19 63.38 357.85 66.21 367.16 74.73 395.7 93.5 413.37 123.78 420.94 134.82 423.77 139.86 424.25 155.96 423.46 196.49 421.72 230.08 406.89 275.82 370.31 285.44 362.74 296.48 354.85 300.74 352.8 312.5 347.14 328.56 344.36 339.85 350.91 350.73 357.22 365.25 370.94 379.75 388.13 395.37 406.74 399.31 409.73 408.46 409.73 415.56 409.73 421.07 406.74 428.18 399.17 452.62 373.31 465.71 331.5 463.82 285.46 462.87 260.06 460.04 247.92 449.15 221.89 440.79 202.02 410.99 141.15 396.16 113.86 386.7 96.19 386.7 96.19 369.98 108.97 360.83 116.07 346.48 128.37 338.11 136.26 322.97 150.92 322.97 150.92 308.15 148.56 290.96 146.04 243.33 145.72 227.4 147.93 216.83 149.5 216.67 149.35 208.47 144.15 195.7 136.09 164 120.64 147.28 114.33 127.41 106.92 102.96 99.98 74.1 93.36 46.66 87.21 50.28 87.68 49.02 89.1Z" fill="url(#g-head)" fill-rule="evenodd"/>
</svg>
